# xmcd CD database file
#
# Track frame offsets:
#	150
#	28117
#	58349
#	86010
#	95999
#	122989
#	162112
#	187474
#	226792
#
# Disc length: 3490 seconds
#
# Revision: 1
# Processed by: cddbd v1.5.1PL0 Copyright (c) Steve Scherf et al.
# Submitted via: CDex 1.51
#
DISCID=810da009
DTITLE=The Bad Plus - Live in Toronto
DYEAR=2004
DGENRE=Jazz
TTITLE0=Do Your Sums, Die Like A Dog, Play For Home
TTITLE1=unknown
TTITLE2=Heart of Glass (Blondy)
TTITLE3=1979 Semi-finalist (story)
TTITLE4=1979 Semi-finalist
TTITLE5=Quadruped
TTITLE6=Dirty Blonde
TTITLE7=Layin' A Strip For The Higher-self State Line
TTITLE8=Pre-hensile Dream
EXTD=YEAR: 2004
EXTT0=
EXTT1=
EXTT2=
EXTT3=
EXTT4=
EXTT5=
EXTT6=
EXTT7=
EXTT8=
PLAYORDER=
